:version 1.10
:name ASF
:units
  mass 1
  length 1
  angle deg
:documentation
  ASF file generated by Kaydara
:root
  axis xyz
  order  tx ty tz rx ry rz
  position 0 0 0
  orientation 0 0 0
:bonedata
  begin
    id 1
    name RightUpLegDummy
    direction -0.718183 -0.695806 0.00816078
    length 4.904
    axis 0 0 0 xyz
  end
  begin
    id 2
    name RightUpLeg
    direction -0.0736652 -0.994202 0.0783343
    length 17.4976
    axis -2.72909 -3.00389 -4.00133 xyz
    dof rx ry rz
  end
  begin
    id 3
    name RightLeg
    direction -0.0389037 -0.994596 -0.0962598
    length 16.5821
    axis 3.95836 -18.5909 -4.46993 xyz
    dof rx ry rz
  end
  begin
    id 4
    name RightFoot
    direction -0.311643 -0.412678 0.855906
    length 3.77069
    axis -1.99483 -18.8351 -3.27644 xyz
    dof rx ry rz
  end
  begin
    id 5
    name RightToes
    direction -0.317852 0.0389852 0.947339
    length 3.85082
    axis -2.00228 -18.1713 -3.25211 xyz
    dof rx ry rz
  end
  begin
    id 6
    name SpineDummy
    direction 8.3039e-015 1 4.44677e-016
    length 4.6813
    axis 0 0 0 xyz
  end
  begin
    id 7
    name Spine
    direction -0.000262373 0.999988 0.00493267
    length 10.1015
    axis -0.00246081 0.00062579 0.0150362 xyz
    dof rx ry rz
  end
  begin
    id 8
    name Spine1
    direction 0 0 0
    length 0
    axis -0.00349562 0.000650293 0.0196666 xyz
    dof rx ry rz
  end
  begin
    id 9
    name HEadDummy
    direction -0.000343232 0.999999 0.00123745
    length 3.43865
    axis -0.00349562 0.000650293 0.0196666 xyz
  end
  begin
    id 10
    name HEad
    direction -0.0461221 0.980933 0.188796
    length 5.12695
    axis -0.00351404 -7.04812 0.0199272 xyz
    dof rx ry rz
  end
  begin
    id 11
    name LeftShoulder1Dummy
    direction 0.998904 -0.0399089 -0.0244534
    length 3.5433
    axis -0.00349562 0.000650293 0.0196666 xyz
  end
  begin
    id 12
    name LeftShoulder1
    direction 0.99951 1.64443e-005 0.0312999
    length 4.05031
    axis -0.00349562 0.000650293 0.0196666 xyz
    dof rx ry rz
  end
  begin
    id 13
    name LeftArm
    direction 0.984791 0.0515299 0.165927
    length 12.9126
    axis -64.823 -10.7743 5.20463 xyz
    dof rx ry rz
  end
  begin
    id 14
    name LeftForeArm
    direction 0.984968 0.0534808 0.16425
    length 10.8596
    axis -30.0462 -7.70601 1.87451 xyz
    dof rx ry rz
  end
  begin
    id 15
    name LeftHand
    direction 0.975871 0.0289682 0.216418
    length 6.62295
    axis -20.1348 -6.98077 1.86072 xyz
    dof rx ry rz
  end
  begin
    id 16
    name RightShoulderDummy
    direction -0.998877 -0.0405946 -0.0244307
    length 3.5433
    axis -0.00349562 0.000650293 0.0196666 xyz
  end
  begin
    id 17
    name RightShoulder
    direction -0.998933 -0.0249743 -0.0388558
    length 4.05031
    axis -0.0205316 -4.02113 1.41395 xyz
    dof rx ry rz
  end
  begin
    id 18
    name RightArm
    direction -0.997559 0.068664 0.0127103
    length 12.9638
    axis -67.3882 1.84188 -6.15987 xyz
    dof rx ry rz
  end
  begin
    id 19
    name RightForeArm
    direction -0.991508 0.0912848 0.0926241
    length 10.8312
    axis -22.1975 3.41087 -4.28711 xyz
    dof rx ry rz
  end
  begin
    id 20
    name RightHand
    direction -0.989262 0.0600788 0.133232
    length 6.57864
    axis -12.2911 2.17515 -4.39675 xyz
    dof rx ry rz
  end
  begin
    id 21
    name LeftUpLegDummy
    direction 0.718183 -0.695806 0.00816078
    length 4.904
    axis 0 0 0 xyz
  end
  begin
    id 22
    name LeftUpLeg
    direction 0.0831398 -0.99469 0.0606531
    length 17.4976
    axis -1.71016 2.29552 4.63832 xyz
    dof rx ry rz
  end
  begin
    id 23
    name LeftLeg
    direction 0.0498442 -0.991778 -0.117862
    length 16.5821
    axis 5.13757 15.5727 5.13348 xyz
    dof rx ry rz
  end
  begin
    id 24
    name LeftFoot
    direction 0.269026 -0.433896 0.85986
    length 3.77069
    axis -0.576502 15.6961 4.10267 xyz
    dof rx ry rz
  end
  begin
    id 25
    name LeftToes
    direction 0.277311 0.0251143 0.960452
    length 3.85048
    axis -0.576502 15.6961 4.10267 xyz
    dof rx ry rz
  end
:hierarchy
  begin
    root RightUpLegDummy SpineDummy LeftUpLegDummy
    RightUpLegDummy RightUpLeg
    RightUpLeg RightLeg
    RightLeg RightFoot
    RightFoot RightToes
    SpineDummy Spine
    Spine Spine1
    Spine1 HEadDummy LeftShoulder1Dummy RightShoulderDummy
    HEadDummy HEad
    LeftShoulder1Dummy LeftShoulder1
    LeftShoulder1 LeftArm
    LeftArm LeftForeArm
    LeftForeArm LeftHand
    RightShoulderDummy RightShoulder
    RightShoulder RightArm
    RightArm RightForeArm
    RightForeArm RightHand
    LeftUpLegDummy LeftUpLeg
    LeftUpLeg LeftLeg
    LeftLeg LeftFoot
    LeftFoot LeftToes
  end

:SAMPLES-PER-SECOND 30
:FULLY-SPECIFIED
:DEGREES
153
root  4.1551 19.2593 -55.4133 52.4896 -6.63217 -8.10884
RightUpLeg  -72.3705 6.30345 13.181
RightLeg  131.328 19.2581 -4.1409
RightFoot  -25.6304 0.00150751 -0.756721
RightToes  5.82077e-011 -3.18055e-015 -2.98177e-016
Spine  48.4493 1.2828 5.52197
Spine1  -19.8794 3.02823 9.20036
HEad  -30.8392 7.88974 -4.65582
LeftShoulder1  -3.88251e-019 9.70628e-020 -3.87848e-018
LeftArm  -12.6987 -29.3843 -50.8422
LeftForeArm  6.33925 -9.40565 -0.502145
LeftHand  -6.0171 -9.10542 47.0378
RightShoulder  4.99059 10.8687 21.5583
RightArm  4.10795 10.3377 66.9728
RightForeArm  24.1142 10.383 -4.55987
RightHand  -13.4266 11.548 -77.4775
LeftUpLeg  -43.5065 3.56966 -7.58023
LeftLeg  97.2655 -19.6271 27.4834
LeftFoot  -24.0649 -1.95491 -19.4879
LeftToes  1.39127e-010 -3.60802e-011 -7.31315e-011
154
root  4.14197 19.1355 -54.6934 53.4282 -5.592 -7.41844
RightUpLeg  -75.8835 6.36443 13.8768
RightLeg  130.873 20.3604 -5.39957
RightFoot  -24.3891 0.014929 -0.692509
RightToes  5.82077e-011 -3.18055e-015 -2.98177e-016
Spine  47.1283 2.0332 4.54307
Spine1  -19.6928 3.21516 12.2611
HEad  -30.9935 7.14432 -5.39273
LeftShoulder1  -3.88251e-019 9.70628e-020 -3.87848e-018
LeftArm  -11.2475 -29.6847 -52.8118
LeftForeArm  4.39636 -7.31167 -1.38589
LeftHand  -6.57574 -8.65988 52.2702
RightShoulder  5.35805 10.8403 23.5907
RightArm  4.67021 9.52554 64.24
RightForeArm  25.4393 10.8372 -4.16394
RightHand  -13.65 11.6391 -78.111
LeftUpLeg  -42.3588 2.57204 -7.69204
LeftLeg  94.5949 -18.7614 29.2265
LeftFoot  -24.6413 -1.97523 -18.697
LeftToes  1.39127e-010 -3.60802e-011 -7.31315e-011
155
root  4.1518 19.0273 -53.8673 54.2267 -4.29808 -6.8434
RightUpLeg  -77.662 5.98319 14.8565
RightLeg  128.466 21.9422 -7.6736
RightFoot  -18.9568 -0.0386925 -2.19317
RightToes  5.82077e-011 -3.18055e-015 -2.98177e-016
Spine  45.488 1.97682 5.58608
Spine1  -19.0934 3.4338 12.1232
HEad  -30.3887 4.92609 -5.42065
LeftShoulder1  -3.88251e-019 9.70628e-020 -3.87848e-018
LeftArm  -9.11637 -28.59 -55.6853
LeftForeArm  3.35313 -7.98092 -2.19939
LeftHand  -7.46195 -9.11604 56.68
RightShoulder  5.78164 10.7998 25.9258
RightArm  4.97077 8.54682 60.2721
RightForeArm  25.8851 11.3209 -3.97097
RightHand  -13.7204 11.508 -78.836
LeftUpLeg  -40.7315 1.57304 -7.43731
LeftLeg  91.4927 -17.4809 30.8946
LeftFoot  -24.9672 -2.02731 -18.6723
LeftToes  1.39127e-010 -3.60802e-011 -7.31315e-011
156
root  4.13425 19.0027 -52.9887 53.4181 -2.44215 -6.32507
RightUpLeg  -75.2759 4.63035 16.7085
RightLeg  124.61 23.693 -10.9337
RightFoot  -12.891 0.0432062 -3.99651
RightToes  5.82077e-011 -3.18055e-015 -2.98177e-016
Spine  44.6583 1.32676 7.94046
Spine1  -17.4853 3.64322 10.4211
HEad  -29.7278 2.05864 -4.87204
LeftShoulder1  -3.88251e-019 9.70628e-020 -3.87848e-018
LeftArm  -6.8981 -27.9831 -59.2305
LeftForeArm  3.38489 -9.474 -3.03858
LeftHand  -8.22581 -9.84117 58.9606
RightShoulder  6.27905 10.8133 28.5211
RightArm  4.63289 7.83461 55.7703
RightForeArm  26.207 11.0525 -3.91415
RightHand  -13.8534 11.3637 -79.8671
LeftUpLeg  -37.3693 0.295232 -6.26771
LeftLeg  88.4375 -15.9081 31.8167
LeftFoot  -24.6789 -1.952 -18.4124
LeftToes  1.39127e-010 -3.60802e-011 -7.31315e-011
157
root  4.01738 18.984 -52.0987 52.6458 -0.542029 -5.56147
RightUpLeg  -70.9543 2.57148 18.6208
RightLeg  120.453 24.958 -14.3101
RightFoot  -10.2551 0.128436 -3.8229
RightToes  5.82077e-011 -3.18055e-015 -2.98177e-016
Spine  43.5442 0.965121 9.51261
Spine1  -15.3209 3.78487 9.45569
HEad  -29.8096 -0.499334 -3.86478
LeftShoulder1  -3.88251e-019 9.70628e-020 -3.87848e-018
LeftArm  -4.93693 -28.4533 -62.9707
LeftForeArm  4.331 -9.74732 -4.18708
LeftHand  -8.8326 -10.0899 61.6632
RightShoulder  6.78924 10.875 31.0401
RightArm  4.0875 6.69996 51.2499
RightForeArm  26.216 11.2418 -4.18164
RightHand  -13.9667 11.4028 -80.208
LeftUpLeg  -34.1425 -1.11587 -4.8502
LeftLeg  85.6184 -14.2787 31.9663
LeftFoot  -24.2022 -1.81345 -17.8174
LeftToes  1.39127e-010 -3.60802e-011 -7.31315e-011
158
root  3.81103 18.9062 -51.102 54.2814 -0.319476 -6.14904
RightUpLeg  -68.2418 2.51769 19.7671
RightLeg  116.815 25.0996 -16.3697
RightFoot  -10.918 0.0711029 -1.96037
RightToes  5.82077e-011 -3.18055e-015 -2.98177e-016
Spine  40.9474 1.96183 9.43441
Spine1  -13.5233 4.55825 7.99523
HEad  -30.521 -2.19255 -2.48927
LeftShoulder1  -3.88251e-019 9.70628e-020 -3.87848e-018
LeftArm  -3.10623 -28.9914 -65.9616
LeftForeArm  5.80499 -9.00307 -5.26243
LeftHand  -9.43347 -10.0709 65.1152
RightShoulder  7.07069 10.9091 32.4056
RightArm  4.65691 3.58572 47.8462
RightForeArm  24.3856 13.7045 -5.30397
RightHand  -13.4917 11.5296 -77.7903
LeftUpLeg  -33.2669 0.0633371 -3.65017
LeftLeg  83.0665 -12.7468 30.9342
LeftFoot  -23.0862 -1.69412 -18.5577
LeftToes  1.39127e-010 -3.60802e-011 -7.31315e-011
159
root  3.56231 18.802 -49.934 57.8165 -3.21077 -9.68516
RightUpLeg  -67.4096 6.61572 19.4655
RightLeg  114.15 23.9456 -15.9936
RightFoot  -11.1823 0.0533574 -1.17884
RightToes  5.82077e-011 -3.18055e-015 -2.98177e-016
Spine  37.308 4.32758 7.83575
Spine1  -11.6037 6.37296 3.68426
HEad  -31.4635 -2.57554 -0.85821
LeftShoulder1  -3.88251e-019 9.70628e-020 -3.87848e-018
LeftArm  -1.11745 -28.7974 -67.147
LeftForeArm  7.07536 -8.83497 -5.2891
LeftHand  -9.93909 -10.3111 67.0298
RightShoulder  6.88079 10.8792 31.5009
RightArm  7.02598 -1.61167 48.1152
RightForeArm  19.4543 17.4275 -8.17996
RightHand  -12.2302 11.4501 -72.5583
LeftUpLeg  -34.1089 5.79641 -3.14813
LeftLeg  81.0862 -11.6414 28.434
LeftFoot  -19.6199 -1.19475 -19.7655
LeftToes  1.39127e-010 -3.60802e-011 -7.31315e-011
160
root  3.37743 18.8 -48.9186 59.8628 -5.31278 -10.9466
RightUpLeg  -66.5 8.12535 17.367
RightLeg  113.074 22.0885 -13.262
RightFoot  -10.5312 0.082343 -2.20598
RightToes  5.82077e-011 -3.18055e-015 -2.98177e-016
Spine  35.5683 5.05676 6.08131
Spine1  -11.3862 6.76271 0.187881
HEad  -31.4763 -2.68423 -0.0524278
LeftShoulder1  -3.88251e-019 9.70628e-020 -3.87848e-018
LeftArm  -1.14852 -27.3605 -67.3836
LeftForeArm  9.54372 -9.4713 -4.86528
LeftHand  -10.3907 -10.8938 67.3957
RightShoulder  6.90611 10.9154 31.5555
RightArm  10.8582 -5.74945 48.3658
RightForeArm  13.8828 21.1723 -11.5195
RightHand  -10.9129 11.0092 -67.8643
LeftUpLeg  -35.5709 8.10215 -3.72437
LeftLeg  81.1071 -11.7021 25.8765
LeftFoot  -13.751 -0.160154 -17.9645
LeftToes  1.39127e-010 -3.60802e-011 -7.31315e-011
161
root  3.10785 18.9032 -48.2175 59.3124 -5.60315 -9.21475
RightUpLeg  -64.0056 6.90136 15.2975
RightLeg  112.664 20.3909 -10.1497
RightFoot  -10.5985 0.1091 -3.4861
RightToes  5.82077e-011 -3.18055e-015 -2.98177e-016
Spine  35.6996 4.69297 3.47732
Spine1  -11.3112 5.61562 0.707531
HEad  -31.1405 -2.69988 0.301542
LeftShoulder1  -3.88251e-019 9.70628e-020 -3.87848e-018
LeftArm  -2.20854 -25.8592 -67.2069
LeftForeArm  12.0489 -10.0491 -4.54676
LeftHand  -10.9048 -11.4495 68.1294
RightShoulder  6.97331 10.9475 31.8319
RightArm  10.7578 -7.6677 48.7196
RightForeArm  12.4977 25.2157 -14.1292
RightHand  -10.4068 10.6574 -66.4678
LeftUpLeg  -36.9101 6.11478 -3.99654
LeftLeg  83.8459 -12.9137 23.7639
LeftFoot  -10.4203 0.302091 -13.4096
LeftToes  1.39127e-010 -3.60802e-011 -7.31315e-011
162
root  2.71628 19.0998 -47.6592 57.3286 -4.70557 -6.49167
RightUpLeg  -59.8685 5.09275 14.241
RightLeg  111.623 19.1921 -8.02872
RightFoot  -12.1211 0.075324 -4.08792
RightToes  5.82077e-011 -3.18055e-015 -2.98177e-016
Spine  37.0768 4.395 0.61762
Spine1  -11.066 4.30759 3.48467
HEad  -30.8837 -3.06907 0.997793
LeftShoulder1  -3.88251e-019 9.70628e-020 -3.87848e-018
LeftArm  -2.6032 -25.1865 -67.6539
LeftForeArm  13.9718 -9.53358 -4.55605
LeftHand  -11.4039 -11.7605 69.5309
RightShoulder  6.79837 10.864 31.1096
RightArm  7.24168 -7.78037 49.6334
RightForeArm  13.6986 30.384 -16.9726
RightHand  -10.5226 10.8034 -66.574
LeftUpLeg  -38.0924 3.33366 -3.511
LeftLeg  88.5006 -14.725 22.6502
LeftFoot  -12.6579 5.9218e-006 -9.90825
LeftToes  1.39127e-010 -3.60802e-011 -7.31315e-011
163
root  2.38124 19.355 -47.0795 55.2101 -3.35486 -3.73372
RightUpLeg  -55.4614 2.78121 13.743
RightLeg  109.684 18.5648 -7.23082
RightFoot  -13.6148 0.0237462 -4.53005
RightToes  5.82077e-011 -3.18055e-015 -2.98177e-016
Spine  39.7171 3.81085 -0.683281
Spine1  -12.1946 3.25177 4.64656
HEad  -30.4301 -4.1479 2.12185
LeftShoulder1  -3.88251e-019 9.70628e-020 -3.87848e-018
LeftArm  -2.07512 -24.769 -69.3218
LeftForeArm  15.7648 -8.14532 -4.8208
LeftHand  -11.687 -11.8616 70.5333
RightShoulder  6.56643 10.7169 30.2095
RightArm  3.95275 -5.66484 49.82
RightForeArm  14.2042 35.3378 -20.1377
RightHand  -10.402 11.1342 -64.8999
LeftUpLeg  -39.9438 1.20523 -3.07544
LeftLeg  93.9591 -16.8353 22.4763
LeftFoot  -17.3393 -0.323207 -7.64452
LeftToes  1.39127e-010 -3.60802e-011 -7.31315e-011
164
root  2.25926 19.5364 -46.5337 53.5557 -1.55284 -0.389364
RightUpLeg  -51.928 -1.37384 13.0856
RightLeg  107.742 18.4067 -7.47052
RightFoot  -14.6949 0.00413679 -3.89152
RightToes  5.82077e-011 -3.18055e-015 -2.98177e-016
Spine  42.5759 1.84855 0.403351
Spine1  -13.9919 1.67194 3.17496
HEad  -30.1834 -5.64923 3.3655
LeftShoulder1  -3.88251e-019 9.70628e-020 -3.87848e-018
LeftArm  -1.27352 -24.3061 -71.6262
LeftForeArm  17.4976 -6.96643 -4.86196
LeftHand  -11.8092 -11.8623 71.0952
RightShoulder  6.25899 10.4889 29.0525
RightArm  1.14554 -0.507647 49.6391
RightForeArm  13.2493 37.2378 -21.422
RightHand  -9.71484 10.9992 -61.8076
LeftUpLeg  -43.3572 -1.79844 -3.63421
LeftLeg  99.8694 -19.2485 22.6605
LeftFoot  -20.3951 -0.160457 -1.71326
LeftToes  1.39127e-010 -3.60802e-011 -7.31315e-011
165
root  2.22953 19.5568 -45.9822 52.5695 -0.382729 3.09557
RightUpLeg  -49.1355 -5.97982 11.7633
RightLeg  105.957 18.561 -8.58009
RightFoot  -16.4619 0.045459 -0.0483956
RightToes  5.82077e-011 -3.18055e-015 -2.98177e-016
Spine  44.2183 -0.28578 1.45585
Spine1  -14.7559 -0.103086 0.884247
HEad  -30.2433 -7.04771 4.39286
LeftShoulder1  -3.88251e-019 9.70628e-020 -3.87848e-018
LeftArm  -0.858255 -23.7846 -73.2871
LeftForeArm  19.0889 -6.78833 -4.72187
LeftHand  -12.0298 -11.9246 71.9036
RightShoulder  5.86211 10.182 27.528
RightArm  -1.32621 7.23613 49.7591
RightForeArm  10.4203 35.0973 -19.7939
RightHand  -8.8201 10.0918 -59.817
LeftUpLeg  -47.7298 -5.21841 -5.55598
LeftLeg  106.048 -21.6929 22.3079
LeftFoot  -24.1956 0.152058 2.37224
LeftToes  1.39127e-010 -3.60802e-011 -7.31315e-011
